<svg xmlns="http://www.w3.org/2000/svg" viewBox="0 0 153.77 81.69"><defs><style>.cls-1{fill:#1e3a5e;}</style></defs><title>Recurso 1</title><g id="Capa_2" data-name="Capa 2"><g id="Capa_1-2" data-name="Capa 1"><path class="cls-1" d="M58.46,54.67A44.36,44.36,0,0,0,76.08,60V40H58.46Z"/><path class="cls-1" d="M153,40H135.35V60.75c-4.8,2.41-10.07,3.89-14.19,3.89a23.89,23.89,0,0,1-9.63-2c-2.09,6.15-6.63,10.92-13.07,14a45.51,45.51,0,0,0,21.22,5.06c11.21,0,24.71-4.35,33.29-10.41Z"/><path class="cls-1" d="M98.49,34.43a22.84,22.84,0,0,1,22.44-17.38,32.92,32.92,0,0,1,21.4,8.69L153.77,11.9C145.53,4.58,133,0,121.05,0A48.83,48.83,0,0,0,99.93,4.61a45.53,45.53,0,0,1,11,6.45L98.4,28.48a40.69,40.69,0,0,0-16.64-7A39.35,39.35,0,0,0,78.59,29l1.28.25A86.6,86.6,0,0,1,98.49,34.43Z"/><path class="cls-1" d="M42.79,81.69A60.65,60.65,0,0,0,61.22,78.5a51.73,51.73,0,0,1-22-11l2.53-3c-12-1.24-20.89-11.06-20.89-23.78,0-13.39,10.07-23.68,23.23-23.68a32.87,32.87,0,0,1,21.39,8.69L76.89,11.9C68.65,4.58,56.06,0,44.16,0,18.88,0,0,17.5,0,40.73S18.42,81.69,42.79,81.69Z"/><path class="cls-1" d="M86.6,56.83V56.6c0-2-1.93-3.14-8.18-4.54a39.78,39.78,0,0,0,3.21,8C85.09,59.81,86.6,58.65,86.6,56.83Z"/></g></g></svg>